<?xml version="1.0" encoding="UTF-8"?>
<svg id="Layer_2" data-name="Layer 2" xmlns="http://www.w3.org/2000/svg" viewBox="0 0 302.34 149.63">
  <defs>
    <style>
      .cls-1 {
        fill: #a07d67;
      }
    </style>
  </defs>
  <g id="Layer_1-2" data-name="Layer 1">
    <g>
      <g>
        <path class="cls-1" d="M181.84,25.32c.36,5.52,4.42,3.38,5.53,7.14.43,1.46.31,2.91-.74,4.09-1.55,1.73-3.75,2.07-5.81,2.63-1.41.39-.94,2.37-.4,3.26,1.42,2.33,3.59,3.44,5.39,5.72-6.7-2.08-12.75-3.91-19.49-4.52-3.45-.31-6.88,0-10.42-.13-3.17-.11-5.95,1.53-9.38,1.19,4.51-2.99,13.76-4.61,19.84-4.72-8.3-6.08-17.23-10.4-26.51-14.67l8.74-.29c-4.8-8.78-10.95-12.64-20.33-15.8-2.24-.75-6.04-.59-6.12,2.65-.04,1.64,2.24,4,.82,5.9-2.25,3-9.2,4.77-7.43,7.61.78,1.26,2.58,2.67,3.99,3.05,5.1,1.39,13.28,6.7,14.28,12.4-4.9-5.48-11.13-8.48-18.2-8.81-3.76-.18-6.77-2.29-8.49-5.5-.28-.52-5.53.72-6.35,5.05-2.4,2.05-3.07,4.12-6.01,4.73-2.04.42-4.41.27-6.1,1.48-1.25.9-.47,2.79.17,3.75l5.55,8.28c1,1.49,2.31,2.68,2.52,4.89-6.15-6.93-13.49-13.31-24.45-11.88-11.01,1.44-18.96,6.94-29.52,10.17,8.18-6.07,16.7-11.5,26.2-14.58l4.44-1.44c2.17-.7,4.73-.37,6.74-1.74,11.29-7.68,21.07-16.98,31.88-25.22,1.37-1.05,11.57-3.56,14.21-10.01,3.81,1.77,6.4,4.09,9.51,6.24l5.69,3.93c2.12,1.47,4.25,2.6,6.27,4.2,2.43,1.91,5.05,3.38,7.57,5.06l7.8,5.17c1.95,1.29,3.64,2.81,5.84,3.79.52.23.67,1.38,1.63.82l-2.72-5.29c3.88-2.56,7.61-4.93,11.07-7.9,1.36-1.17,2.65-2.81,4.41-3.37.64,1.13,2.17,1.72,3.02,2.45,3.91,3.34,9.02,6.54,13.4,9.31l2.28,1.45c1.38.87,2.57,1.58,4.09,2.24,2.28,1,4.33,2.94,7,2.8,1.42-.07,2.26-1.75,3.27-2.5,1.51-1.12,2.78-2.11,4.09-3.8l6.19,5.06c2.92,2.39,5.94,4.56,8.88,6.95l2.57,2.09c3.34,2.71,17.52,11.71,17.79,11.97.5.48,1.73.34,1.12,1.57-11.82-5.5-23.03-11.81-33.86-19.14-.1-.07-4.69-.67-5.08,2.26-.16,1.2,2.68,2.81,3.8,3.68l7.97,6.21c1.02.79,8.49,6.59,8.67,6.62.39.05.33,1.52-.22,1.27-8.44-3.82-17.25-5.64-26.43-6.38l-5.48-.45c1.59-.78,3.28-1.16,5.12-1.41l7.5-1.04c-8.53-9.5-23.16-17.03-34.59-22.55-1.73.89-2.84,2.51-2.74,4.03Z"/>
        <rect class="cls-1" x="2.21" y="57.64" width="300.13" height="2.48"/>
        <rect class="cls-1" x="2.21" y="124.54" width="300.13" height="2.48"/>
        <path class="cls-1" d="M44.33,141.11c0,4.7-3.81,8.52-8.52,8.52s-8.52-3.81-8.52-8.52,3.81-8.52,8.52-8.52,8.52,3.81,8.52,8.52ZM42.21,140.96c0-3.17-1.49-5.46-4.75-6.41-2.55-.75-5.83.47-7.18,2.77s-1.31,5.32.17,7.54,4.58,3.23,7.01,2.52c3.26-.96,4.75-3.25,4.75-6.42Z"/>
        <path class="cls-1" d="M222.74,141.11c0,4.7-3.81,8.52-8.52,8.52s-8.52-3.81-8.52-8.52,3.81-8.52,8.52-8.52,8.52,3.81,8.52,8.52ZM220.55,140.96c0-3.17-1.49-5.46-4.75-6.41-2.55-.75-5.83.47-7.18,2.77s-1.31,5.32.17,7.54,4.58,3.23,7.01,2.52c3.26-.96,4.75-3.25,4.75-6.42Z"/>
        <path class="cls-1" d="M66.03,148.66c-.79.4-1.92.37-2.39-.31l-8.78-12.83-.08,13.33c-.64.11-1.12.11-1.78,0v-15.69c.61-.08,1.55-.24,2.12-.06l9.03,12.86.06-12.87c.65-.11,1.14-.11,1.8,0l.02,15.58Z"/>
        <path class="cls-1" d="M244.13,148.66c-.79.4-1.92.37-2.39-.31l-8.78-12.83-.08,13.33c-.64.11-1.12.11-1.78,0v-15.86c.63-.08,1.6-.25,2.18-.06l9.28,13.21v-13.05h1.55s.02,15.58.02,15.58Z"/>
        <path class="cls-1" d="M122.27,149.19c-1.28-1.32-4.09-7.33-4.83-7.61-.62-.23-2.49-.52-2.5.1l-.11,7.57c-.62.11-1.09.11-1.75,0v-16.67c2.57.17,4.94-.27,7.43.13,2.06.33,3.66,2.67,3.53,4.44-.17,2.22-1.97,4.03-4.36,4.35l4.87,7.71c-.55.03-1.86.48-2.29-.02ZM121.39,138.39c.53-.47.39-2.19-.08-2.54-1.79-1.32-4.15-1.32-6.36-1.11v4.91c2.21.08,4.6.37,6.44-1.27Z"/>
        <path class="cls-1" d="M142.45,133.29c.74-.31,1.32-.15,2.14-.09-.56,4.94,2.13,15.62-5.32,16.1-3.28.21-5.78-1.07-6.67-4.35l-.03-11.87c.6-.11,1.04-.11,1.58,0l.12,10.74c.03,2.25,2.35,3.84,4.27,3.8,2.4-.06,3.99-2.05,3.97-4.52l-.06-9.81Z"/>
        <path class="cls-1" d="M9.61,146.22c3.21,2.34,6.79,1.56,8.77-1.06.33.34.73.37.89.42,1.34.44-2.36,5.28-8.72,3.37-2.78-.84-4.95-3.41-5.33-6.71-.44-3.85,1.13-7.18,4.42-8.86,3.28-1.68,7.63-.92,9.75,1.93-1.25,3.46-3.88-4.08-9.89.47-3.18,2.41-3.26,8,.11,10.45Z"/>
        <path class="cls-1" d="M157.81,146.22c3.21,2.34,6.79,1.56,8.77-1.06.33.35.73.37.89.42,1.34.45-2.36,5.28-8.72,3.37-2.78-.84-4.95-3.41-5.33-6.71-.44-3.85,1.13-7.18,4.42-8.86,3.28-1.68,7.63-.92,9.75,1.93-1.25,3.46-3.88-4.08-9.89.47-3.18,2.41-3.26,8,.11,10.45Z"/>
        <path class="cls-1" d="M81.22,149.33c-2.56.3-4.89-.47-6.08-2.51.07-.47.75-1.06,1.34-1.36.95,1.77,3.19,2.59,4.93,1.86,1.27-.53,1.97-1.31,2.14-2.44.49-3.3-5.01-3.06-7.13-5.12-1.34-1.31-1.49-3.25-.73-4.66s2.2-2.35,4.05-2.54c2.26-.23,4.05.3,5.4,2.39-.25.3-.93.9-1.52.86-1.25-1.44-3.18-1.97-4.99-.96-1.34.75-2.13,2.69-.84,3.91,2.08,2,8.12,1.58,7.69,6.48-.19,2.12-1.77,3.79-4.25,4.08Z"/>
        <path class="cls-1" d="M99.78,148.73c-.61.35-2.17.11-2.17.11v-14.08s-4.93-.02-4.93-.02c-.07-.56-.09-.96.01-1.52h12.13s.09.86.01,1.55h-5.05v13.97Z"/>
        <path class="cls-1" d="M181.55,148.73c-.74.35-2.17.11-2.17.11v-14.08s-4.93-.02-4.93-.02c-.07-.56-.09-.96.01-1.52h11.99s.09.86.01,1.55h-4.92v13.97Z"/>
        <rect class="cls-1" x="194.86" y="133.21" width="1.55" height="15.8"/>
        <g>
          <path class="cls-1" d="M295.16,147.21c.4-.29.6-.68.83-.82.33-.19.58.2.84.4,1.2.94-4.74,4.21-8.23.45-1.74-1.88-1.75-5.25,0-7.12,2.33-2.48,6.14-2.16,8.43-.27-1.03,1.01-1.7.44-2.57-.07-1.86-1.09-3.93-.05-4.96,1.4-1.17,1.64-1.08,3.69.18,5.23s3.45,2.3,5.49.81Z"/>
          <path class="cls-1" d="M266.13,148.02c2.12.36,3.63-.62,5.34.53-2.34.73-4.33.14-6.61.32v-10.31c.4-.15.86-.16,1.24.01l.03,9.45Z"/>
          <path class="cls-1" d="M277.9,148.02c2.12.36,3.63-.62,5.34.53-2.34.73-4.33.14-6.61.32v-10.31c.4-.15.86-.16,1.24.01l.03,9.45Z"/>
        </g>
      </g>
      <g>
        <path class="cls-1" d="M49.49,104.78c-.4,1.79-.83,3.84-1.31,6.16-.47,2.31-.91,4.49-1.31,6.53-1.15,0-2.45.12-3.92.37-1.47.25-3,.51-4.59.78-1.59.27-3.24.53-4.93.78-1.69.25-3.33.37-4.93.37-4.78,0-8.94-.75-12.5-2.24-3.56-1.49-6.53-3.5-8.92-6.01-2.39-2.51-4.17-5.39-5.34-8.62-1.17-3.23-1.75-6.57-1.75-10,0-3.63.68-7.1,2.05-10.41,1.37-3.31,3.31-6.22,5.82-8.73,2.51-2.51,5.57-4.52,9.18-6.01,3.61-1.49,7.65-2.24,12.13-2.24,1.64,0,3.18.07,4.63.22,1.44.15,2.82.3,4.14.45,1.32.15,2.59.3,3.81.45,1.22.15,2.4.22,3.54.22.2,2.09.45,4.22.75,6.38.3,2.16.62,4.27.97,6.31,0,.2-.12.35-.37.45-.25.1-.52.15-.82.15-.5,0-.8-.2-.9-.6-.4-1.54-1.07-3.01-2.02-4.4-.95-1.39-2.1-2.62-3.47-3.69-1.37-1.07-2.95-1.93-4.74-2.57-1.79-.65-3.73-.97-5.82-.97-2.99,0-5.74.66-8.25,1.98-2.51,1.32-4.69,3.11-6.53,5.37-1.84,2.27-3.28,4.91-4.33,7.95-1.04,3.04-1.57,6.27-1.57,9.7s.52,6.56,1.57,9.52c1.04,2.96,2.47,5.55,4.29,7.76,1.82,2.21,3.97,3.97,6.46,5.26,2.49,1.29,5.15,1.94,7.99,1.94,4.78,0,8.7-1.14,11.76-3.43,3.06-2.29,5.44-5.35,7.13-9.18.2-.4.55-.6,1.04-.6.7,0,1.04.2,1.04.6Z"/>
        <path class="cls-1" d="M124.65,117.55c0,.7-.2,1.04-.6,1.04-1.25,0-2.33-.03-3.25-.07-.92-.05-1.8-.1-2.65-.15-.85-.05-1.72-.1-2.61-.15-.9-.05-1.92-.07-3.06-.07s-2.13.02-2.95.07c-.82.05-1.62.1-2.39.15-.77.05-1.58.1-2.43.15-.85.05-1.89.07-3.13.07-.4,0-.6-.35-.6-1.04,0-.6.2-.94.6-1.04,1.79-.2,3.17-.46,4.14-.78.97-.32,1.68-.73,2.13-1.23.45-.5.7-1.09.75-1.79.05-.7.07-1.52.07-2.46v-16.64h-28.51v16.64c0,.95.02,1.77.07,2.46.05.7.3,1.29.75,1.79.45.5,1.16.91,2.13,1.23.97.32,2.35.59,4.14.78.4.1.6.45.6,1.04,0,.7-.2,1.04-.6,1.04-1.24,0-2.29-.03-3.13-.07-.85-.05-1.66-.1-2.43-.15-.77-.05-1.57-.1-2.39-.15-.82-.05-1.8-.07-2.95-.07s-2.16.02-3.06.07c-.9.05-1.77.1-2.61.15-.85.05-1.73.1-2.65.15-.92.05-2,.07-3.25.07-.4,0-.6-.35-.6-1.04,0-.6.2-.94.6-1.04,1.79-.2,3.21-.46,4.25-.78,1.04-.32,1.83-.73,2.35-1.23.52-.5.85-1.09.97-1.79.12-.7.19-1.52.19-2.46v-35.15c0-.94-.06-1.78-.19-2.5-.12-.72-.45-1.32-.97-1.79-.52-.47-1.31-.87-2.35-1.19-1.04-.32-2.46-.61-4.25-.86-.4,0-.6-.35-.6-1.04,0-.25.06-.49.19-.71.12-.22.26-.34.41-.34,1.24,0,2.33.03,3.25.07.92.05,1.8.1,2.65.15.85.05,1.72.1,2.61.15.9.05,1.92.07,3.06.07s2.13-.02,2.95-.07c.82-.05,1.62-.1,2.39-.15.77-.05,1.58-.1,2.43-.15.85-.05,1.89-.07,3.13-.07.2,0,.35.11.45.34.1.22.15.46.15.71,0,.7-.2,1.04-.6,1.04-1.79.25-3.17.54-4.14.86-.97.32-1.68.72-2.13,1.19-.45.47-.7,1.07-.75,1.79-.05.72-.07,1.56-.07,2.5v16.12h28.51v-16.12c0-.94-.03-1.78-.07-2.5-.05-.72-.3-1.32-.75-1.79-.45-.47-1.16-.87-2.13-1.19-.97-.32-2.35-.61-4.14-.86-.4,0-.6-.35-.6-1.04,0-.25.05-.49.15-.71.1-.22.25-.34.45-.34,1.24,0,2.29.03,3.13.07.85.05,1.65.1,2.43.15.77.05,1.57.1,2.39.15.82.05,1.8.07,2.95.07s2.17-.02,3.06-.07c.9-.05,1.77-.1,2.61-.15.85-.05,1.73-.1,2.65-.15.92-.05,2-.07,3.25-.07.15,0,.29.11.41.34.12.22.19.46.19.71,0,.7-.2,1.04-.6,1.04-1.79.25-3.21.54-4.25.86-1.04.32-1.83.72-2.35,1.19-.52.47-.85,1.07-.97,1.79-.12.72-.19,1.56-.19,2.5v35.15c0,.95.06,1.77.19,2.46.12.7.45,1.29.97,1.79.52.5,1.31.91,2.35,1.23,1.04.32,2.46.59,4.25.78.4.1.6.45.6,1.04Z"/>
        <path class="cls-1" d="M192.19,117.55c0,.7-.2,1.04-.6,1.04-1.24,0-2.3-.03-3.17-.07-.87-.05-1.68-.1-2.43-.15-.75-.05-1.51-.1-2.28-.15-.77-.05-1.68-.07-2.72-.07-1.15,0-2.18.02-3.1.07-.92.05-1.8.1-2.65.15-.85.05-1.74.1-2.69.15-.95.05-2.04.07-3.28.07-.4,0-.6-.35-.6-1.04s.15-1.04.45-1.04c2.44-.1,4.09-.41,4.96-.93.87-.52,1.31-1.26,1.31-2.2,0-.45-.06-.93-.19-1.46-.12-.52-.29-1.08-.49-1.68l-4.33-12.46h-15.38l-4.25,11.57c-.25.65-.45,1.27-.6,1.87-.15.6-.22,1.17-.22,1.72,0,1,.42,1.82,1.27,2.46.85.65,2.44,1.02,4.78,1.12.3,0,.45.35.45,1.04s-.2,1.04-.6,1.04c-1.09,0-2.01-.03-2.76-.07-.75-.05-1.46-.1-2.13-.15-.67-.05-1.36-.1-2.05-.15-.7-.05-1.57-.07-2.61-.07-.85,0-1.58.02-2.2.07-.62.05-1.24.1-1.87.15-.62.05-1.27.1-1.94.15-.67.05-1.46.07-2.35.07-.45,0-.62-.35-.52-1.04,0-.3.1-.53.3-.71.2-.17.37-.29.52-.34,1.29-.1,2.39-.34,3.28-.71.9-.37,1.65-.88,2.28-1.53.62-.65,1.17-1.41,1.64-2.28.47-.87.96-1.85,1.46-2.95l17.46-42.92c.15-.4.5-.6,1.04-.6.6,0,.94.2,1.04.6l15.53,42.92c.35.95.76,1.84,1.23,2.69.47.85,1.07,1.59,1.79,2.24.72.65,1.6,1.19,2.65,1.64s2.31.75,3.81.9c.15.05.31.16.49.34.17.17.26.41.26.71ZM163.01,76.27l-7.09,19.11h13.66l-6.57-19.11Z"/>
        <path class="cls-1" d="M238.02,103.59c0,2.49-.37,4.73-1.12,6.72-.75,1.99-1.83,3.68-3.25,5.08-1.42,1.39-3.13,2.48-5.15,3.25-2.02.77-4.29,1.16-6.83,1.16-1.59,0-3-.13-4.22-.38-1.22-.26-2.39-.53-3.51-.81-1.12-.28-2.24-.55-3.36-.81-1.12-.26-2.38-.39-3.77-.39-.1-2.04-.22-4.22-.37-6.53-.15-2.31-.32-4.37-.52-6.16,0-.2.11-.35.34-.45.22-.1.48-.15.78-.15.5,0,.82.2.97.6.65,2.34,1.39,4.3,2.24,5.9.84,1.59,1.82,2.89,2.91,3.88,1.09,1,2.36,1.72,3.81,2.16,1.44.45,3.11.67,5,.67,3.23,0,5.62-.91,7.17-2.72,1.54-1.81,2.31-4.21,2.31-7.19,0-1.99-.61-3.71-1.83-5.18-1.22-1.47-2.72-2.82-4.52-4.06s-3.76-2.44-5.9-3.58c-2.14-1.14-4.11-2.4-5.9-3.76s-3.3-2.91-4.52-4.62c-1.22-1.71-1.83-3.79-1.83-6.22,0-1.84.36-3.63,1.08-5.37.72-1.74,1.78-3.28,3.17-4.62,1.39-1.34,3.06-2.42,5-3.24s4.15-1.23,6.64-1.23c1.29,0,2.4.07,3.32.22.92.15,1.79.3,2.61.45.82.15,1.65.3,2.5.45.85.15,1.87.22,3.06.22.15,2.14.31,4.08.49,5.82.17,1.74.41,3.66.71,5.75.05.15-.04.29-.26.41-.22.12-.46.19-.71.19-.7,0-1.07-.2-1.12-.6-.85-3.83-2.12-6.54-3.81-8.14-1.69-1.59-3.98-2.39-6.87-2.39s-5.06.83-6.68,2.5c-1.62,1.67-2.43,3.87-2.43,6.61,0,1.79.6,3.37,1.79,4.74,1.19,1.37,2.7,2.66,4.52,3.88,1.82,1.22,3.77,2.4,5.86,3.55,2.09,1.15,4.04,2.4,5.86,3.77,1.82,1.37,3.32,2.91,4.52,4.63s1.79,3.72,1.79,6.01Z"/>
        <path class="cls-1" d="M299.15,106.27c-1,2.09-1.88,4.08-2.65,5.97-.77,1.89-1.53,4.01-2.28,6.34-1.19-.05-2.68-.1-4.44-.15-1.77-.05-3.6-.1-5.49-.15-1.89-.05-3.74-.09-5.56-.11-1.82-.03-3.35-.04-4.59-.04s-2.76.01-4.55.04c-1.79.02-3.63.06-5.52.11-1.89.05-3.72.1-5.49.15-1.77.05-3.25.1-4.44.15-.4,0-.6-.35-.6-1.04,0-.6.2-.94.6-1.04,1.79-.2,3.21-.46,4.25-.78,1.04-.32,1.82-.73,2.31-1.23.5-.5.81-1.09.93-1.79.12-.7.19-1.52.19-2.46v-35.15c0-.94-.06-1.78-.19-2.5-.12-.72-.44-1.32-.93-1.79-.5-.47-1.27-.87-2.31-1.19-1.04-.32-2.46-.61-4.25-.86-.4,0-.6-.35-.6-1.04,0-.25.05-.49.15-.71.1-.22.25-.34.45-.34,1.19.05,2.64.1,4.33.15,1.69.05,3.43.1,5.22.15,1.79.05,3.54.09,5.26.11,1.72.03,3.2.04,4.44.04s2.74-.01,4.48-.04c1.74-.02,3.51-.06,5.3-.11,1.79-.05,3.53-.1,5.22-.15,1.69-.05,3.13-.1,4.33-.15.3,2.09.63,3.98,1.01,5.67.37,1.69.86,3.56,1.46,5.6.1.25.01.46-.26.63-.27.17-.61.26-1.01.26-.45,0-.72-.17-.82-.52-.55-1.74-1.24-3.17-2.09-4.29-.85-1.12-1.79-2.02-2.84-2.69-1.04-.67-2.15-1.14-3.32-1.42-1.17-.27-2.35-.41-3.55-.41h-7.54c-.5,0-1,.06-1.49.19-.5.12-.96.35-1.38.67-.42.32-.77.78-1.04,1.38-.27.6-.41,1.34-.41,2.24v16.64h9.4c.94,0,1.8-.07,2.58-.22.77-.15,1.44-.48,2.02-1.01.57-.52,1.04-1.31,1.42-2.35s.68-2.46.93-4.25c0-.4.35-.6,1.04-.6.25,0,.49.05.71.15.22.1.34.25.34.45,0,.95-.03,1.79-.07,2.54-.05.75-.1,1.47-.15,2.16-.05.7-.1,1.39-.15,2.09-.05.7-.07,1.49-.07,2.39,0,1.74.07,3.26.22,4.55.15,1.29.22,2.86.22,4.7,0,.15-.11.29-.34.41-.22.12-.46.19-.71.19-.7,0-1.04-.2-1.04-.6-.25-1.79-.56-3.23-.93-4.33-.37-1.09-.85-1.93-1.42-2.5-.57-.57-1.25-.94-2.02-1.12-.77-.17-1.63-.26-2.58-.26h-9.4v18.36c0,.9.14,1.63.41,2.2.27.57.62,1.02,1.04,1.34.42.32.88.55,1.38.67.5.12,1,.19,1.49.19h8.14c1.49,0,2.99-.25,4.48-.75,1.49-.5,2.92-1.19,4.29-2.09,1.37-.9,2.61-1.97,3.73-3.21,1.12-1.24,2.03-2.61,2.72-4.1.15-.2.37-.3.67-.3.4,0,.75.11,1.04.34.3.22.4.44.3.63Z"/>
      </g>
    </g>
  </g>
</svg>